<mxfile host="app.diagrams.net" modified="2021-03-31T05:00:52.561Z" agent="5.0 (Windows NT 10.0; Win64; x64) AppleWebKit/537.36 (KHTML, like Gecko) Chrome/89.0.4389.90 Safari/537.36" etag="0avc5RbyeUVbH8VgdQv-" version="14.5.3" type="github">
  <diagram id="StC2bS38dm-an3zk7gyc" name="Page-1">
    <mxGraphModel dx="1160" dy="580" grid="1" gridSize="10" guides="1" tooltips="1" connect="1" arrows="1" fold="1" page="1" pageScale="1" pageWidth="850" pageHeight="1100" math="0" shadow="0">
      <root>
        <mxCell id="0" />
        <mxCell id="1" parent="0" />
        <mxCell id="cD2CyHJuyCR0iV1gbd62-1" value="IdentityServer4" style="whiteSpace=wrap;html=1;aspect=fixed;" vertex="1" parent="1">
          <mxGeometry x="220" y="150" width="120" height="120" as="geometry" />
        </mxCell>
      </root>
    </mxGraphModel>
  </diagram>
</mxfile>
